[Header]
FileType HTR
DataType HTRS
FileVersion 1
NumSegments 64
NumFrames 3
DataFrameRate 24
EulerRotationOrder ZYX
CalibrationUnits mm
RotationUnits Degrees
GlobalAxisofGravity Y
BoneLengthAxis Y
ScaleFactor 1.0
[SegmentNames&Hierarchy]
Hips	GLOBAL
Spine	Hips
Spine1	Spine
Spine2	Spine1
Neck	Spine2
Head	Neck
LeftEye	Head
RightEye	Head
LeftShoulder	Spine2
LeftArm	LeftShoulder
LeftForeArm	LeftArm
LeftHand	LeftForeArm
LeftHandThumb1	LeftHand
LeftHandThumb2	LeftHandThumb1
LeftHandThumb3	LeftHandThumb2
LeftHandThumb4	LeftHandThumb3
LeftHandIndex1	LeftHand
LeftHandIndex2	LeftHandIndex1
LeftHandIndex3	LeftHandIndex2
LeftHandIndex4	LeftHandIndex3
LeftHandMiddle1	LeftHand
LeftHandMiddle2	LeftHandMiddle1
LeftHandMiddle3	LeftHandMiddle2
LeftHandMiddle4	LeftHandMiddle3
LeftHandRing1	LeftHand
LeftHandRing2	LeftHandRing1
LeftHandRing3	LeftHandRing2
LeftHandRing4	LeftHandRing3
LeftHandPinky1	LeftHand
LeftHandPinky2	LeftHandPinky1
LeftHandPinky3	LeftHandPinky2
LeftHandPinky4	LeftHandPinky3
RightShoulder	Spine2
RightArm	RightShoulder
RightForeArm	RightArm
RightHand	RightForeArm
RightHandPinky1	RightHand
RightHandPinky2	RightHandPinky1
RightHandPinky3	RightHandPinky2
RightHandPinky4	RightHandPinky3
RightHandRing1	RightHand
RightHandRing2	RightHandRing1
RightHandRing3	RightHandRing2
RightHandRing4	RightHandRing3
RightHandMiddle1	RightHand
RightHandMiddle2	RightHandMiddle1
RightHandMiddle3	RightHandMiddle2
RightHandMiddle4	RightHandMiddle3
RightHandIndex1	RightHand
RightHandIndex2	RightHandIndex1
RightHandIndex3	RightHandIndex2
RightHandIndex4	RightHandIndex3
RightHandThumb1	RightHand
RightHandThumb2	RightHandThumb1
RightHandThumb3	RightHandThumb2
RightHandThumb4	RightHandThumb3
LeftUpLeg	Hips
LeftLeg	LeftUpLeg
LeftFoot	LeftLeg
LeftToeBase	LeftFoot
RightUpLeg	Hips
RightLeg	RightUpLeg
RightFoot	RightLeg
RightToeBase	RightFoot
[BasePosition]
Hips	0	0	0	0	0	0	1
Spine	0	0	0	0	0	0	1
Spine1	0	0	0	0	0	0	1
Spine2	0	0	0	0	0	0	1
Neck	0	0	0	0	0	0	1
Head	0	0	0	0	0	0	1
LeftEye	0	0	0	0	0	0	1
RightEye	0	0	0	0	0	0	1
LeftShoulder	0	0	0	0	0	0	1
LeftArm	0	0	0	0	0	0	1
LeftForeArm	0	0	0	0	0	0	1
LeftHand	0	0	0	0	0	0	1
LeftHandThumb1	0	0	0	0	0	0	1
LeftHandThumb2	0	0	0	0	0	0	1
LeftHandThumb3	0	0	0	0	0	0	1
LeftHandThumb4	0	0	0	0	0	0	1
LeftHandIndex1	0	0	0	0	0	0	1
LeftHandIndex2	0	0	0	0	0	0	1
LeftHandIndex3	0	0	0	0	0	0	1
LeftHandIndex4	0	0	0	0	0	0	1
LeftHandMiddle1	0	0	0	0	0	0	1
LeftHandMiddle2	0	0	0	0	0	0	1
LeftHandMiddle3	0	0	0	0	0	0	1
LeftHandMiddle4	0	0	0	0	0	0	1
LeftHandRing1	0	0	0	0	0	0	1
LeftHandRing2	0	0	0	0	0	0	1
LeftHandRing3	0	0	0	0	0	0	1
LeftHandRing4	0	0	0	0	0	0	1
LeftHandPinky1	0	0	0	0	0	0	1
LeftHandPinky2	0	0	0	0	0	0	1
LeftHandPinky3	0	0	0	0	0	0	1
LeftHandPinky4	0	0	0	0	0	0	1
RightShoulder	0	0	0	0	0	0	1
RightArm	0	0	0	0	0	0	1
RightForeArm	0	0	0	0	0	0	1
RightHand	0	0	0	0	0	0	1
RightHandPinky1	0	0	0	0	0	0	1
RightHandPinky2	0	0	0	0	0	0	1
RightHandPinky3	0	0	0	0	0	0	1
RightHandPinky4	0	0	0	0	0	0	1
RightHandRing1	0	0	0	0	0	0	1
RightHandRing2	0	0	0	0	0	0	1
RightHandRing3	0	0	0	0	0	0	1
RightHandRing4	0	0	0	0	0	0	1
RightHandMiddle1	0	0	0	0	0	0	1
RightHandMiddle2	0	0	0	0	0	0	1
RightHandMiddle3	0	0	0	0	0	0	1
RightHandMiddle4	0	0	0	0	0	0	1
RightHandIndex1	0	0	0	0	0	0	1
RightHandIndex2	0	0	0	0	0	0	1
RightHandIndex3	0	0	0	0	0	0	1
RightHandIndex4	0	0	0	0	0	0	1
RightHandThumb1	0	0	0	0	0	0	1
RightHandThumb2	0	0	0	0	0	0	1
RightHandThumb3	0	0	0	0	0	0	1
RightHandThumb4	0	0	0	0	0	0	1
LeftUpLeg	0	0	0	0	0	0	1
LeftLeg	0	0	0	0	0	0	1
LeftFoot	0	0	0	0	0	0	1
LeftToeBase	0	0	0	0	0	0	1
RightUpLeg	0	0	0	0	0	0	1
RightLeg	0	0	0	0	0	0	1
RightFoot	0	0	0	0	0	0	1
RightToeBase	0	0	0	0	0	0	1
[Hips]
9	87.18384552	724.4715576	-78.4571991	31.36709595	8.887724876	9.354148865	1.0
10	89.74360657	720.0344849	-85.61167908	29.35605812	8.439198494	7.953212738	1.0
11	89.87381744	732.2956543	-86.88671112	27.08288765	8.046590805	6.706116676	1.0
[Spine]
9	0	101.8159943	1.315000057	11.28166103	-0.6773988008	-3.771403074	1.0
10	0	101.8159943	1.315000057	13.348773	-0.6067755818	-3.752443075	1.0
11	0	101.8159943	1.315000057	14.17475128	-0.7040077448	-3.725413561	1.0
[Spine1]
9	0	100.8349991	-10.00800037	3.588776588	-0.7792677283	1.877586603	1.0
10	0	100.8349991	-10.00800037	4.00015974	-0.8276628256	1.76865685	1.0
11	0	100.8349991	-10.00800037	4.13448	-0.8675320745	1.752122879	1.0
[Spine2]
9	0	91	-13.73399925	3.541581869	-0.4596703649	1.861910343	1.0
10	0	91	-13.73399925	3.952088833	-0.5105254054	1.755964875	1.0
11	0	91	-13.73399925	4.088181973	-0.55008322	1.739371538	1.0
[Neck]
9	0	166.7169952	-25.16200066	-17.71993065	-1.973640561	-2.729600668	1.0
10	0	166.7169952	-25.16200066	-17.68785667	-1.759826422	-2.203110933	1.0
11	0	166.7169952	-25.16200066	-17.07197952	-1.517581463	-1.965000868	1.0
[Head]
9	0	96.17900085	16.84999847	-44.13908386	-10.4115572	-6.486056805	1.0
10	0	96.17900085	16.84999847	-44.30363464	-9.378779411	-6.340596199	1.0
11	0	96.17900085	16.84999847	-42.31390381	-8.16469574	-6.395498276	1.0
[LeftEye]
9	30.6760006	64.09500122	92.83599854	0	0	0	1.0
10	30.6760006	64.09500122	92.83599854	0	0	0	1.0
11	30.6760006	64.09500122	92.83599854	0	0	0	1.0
[RightEye]
9	-30.6760006	64.09500122	92.83499908	0	0	0	1.0
10	-30.6760006	64.09500122	92.83499908	0	0	0	1.0
11	-30.6760006	64.09500122	92.83499908	0	0	0	1.0
[LeftShoulder]
9	45.70400238	109.4599991	-26.28000069	4.425422668	-15.97507954	-4.305830479	1.0
10	45.70400238	109.4599991	-26.28000069	4.191060543	-18.74653244	-5.398668766	1.0
11	45.70400238	109.4599991	-26.28000069	2.175884724	-21.16944504	-1.748475432	1.0
[LeftArm]
9	105.923996	-5.24600029	-22.32099915	-4.903529167	-18.14033318	-57.11777878	1.0
10	105.923996	-5.24600029	-22.32099915	0.1591970176	-45.47110748	-49.97524643	1.0
11	105.923996	-5.24600029	-22.32099915	-2.671366692	-59.50050735	-38.61748123	1.0
[LeftForeArm]
9	278.414978	-0.0009999999311	0	1.342478026e-05	-21.36683846	-0.0002212442341	1.0
10	278.414978	-0.0009999999311	0	-1.899573022e-06	-15.49304485	-0.0001976141648	1.0
11	278.414978	-0.0009999999311	0	1.251696631e-06	-18.91905212	-0.0001982010872	1.0
[LeftHand]
9	283.2879944	0	0	-20.78635216	11.48637199	9.957023621	1.0
10	283.2879944	0	0	-7.949530602	2.667132378	11.87413502	1.0
11	283.2879944	0	0	-0.840334177	-1.990551472	9.839612961	1.0
[LeftHandThumb1]
9	24.6609993	-15.75	26.8239994	16.80764198	-5.736687183	9.981678009	1.0
10	24.6609993	-15.75	26.8239994	18.23936272	-3.72870183	10.28358078	1.0
11	24.6609993	-15.75	26.8239994	18.16825676	-3.756098986	10.24331665	1.0
[LeftHandThumb2]
9	32.29800034	-18.64699936	18.64699936	-2.036452293	28.61643982	-3.743088484	1.0
10	32.29800034	-18.64699936	18.64699936	-0.2971387506	33.18159485	-2.759058952	1.0
11	32.29800034	-18.64699936	18.64699936	-0.3523852527	33.04400253	-2.79195261	1.0
[LeftHandThumb3]
9	26.52600098	-15.31499958	15.31499958	1.640857458	7.661583424	-0.4260291755	1.0
10	26.52600098	-15.31499958	15.31499958	2.132209539	9.478969574	0.02156504989	1.0
11	26.52600098	-15.31499958	15.31499958	2.117115259	9.424070358	0.007753877435	1.0
[LeftHandThumb4]
9	19.54599953	-11.28499985	11.28499985	0	0	0	1.0
10	19.54599953	-11.28499985	11.28499985	0	0	0	1.0
11	19.54599953	-11.28499985	11.28499985	0	0	0	1.0
[LeftHandIndex1]
9	91.09299469	-5.170999527	22.60099792	0.01916555315	2.093709469	-4.423940659	1.0
10	91.09299469	-5.170999527	22.60099792	-0.3871022761	4.981696129	-8.859682083	1.0
11	91.09299469	-5.170999527	22.60099792	-0.650200963	5.191353321	-11.92813396	1.0
[LeftHandIndex2]
9	36.76399994	0	0	-0.4618010521	2.437448025	-16.91082764	1.0
10	36.76399994	0	0	-0.6789895892	2.862352848	-21.60585594	1.0
11	36.76399994	0	0	-0.8389347792	3.128947258	-24.66564751	1.0
[LeftHandIndex3]
9	28.83100128	0	0	-0.05654158443	0.4430380762	-6.527070045	1.0
10	28.83100128	0	0	-0.1289498359	0.9073318839	-11.20076561	1.0
11	28.83100128	0	0	-0.1965157241	1.206530452	-14.2516346	1.0
[LeftHandIndex4]
9	23.92700005	0	0	0	0	0	1.0
10	23.92700005	0	0	0	0	0	1.0
11	23.92700005	0	0	0	0	0	1.0
[LeftHandMiddle1]
9	95.33399963	0	0	-1.085353971	7.548560619	-12.25579548	1.0
10	95.33399963	0	0	-1.647727251	8.835865974	-16.91762543	1.0
11	95.33399963	0	0	-2.030371189	9.025279999	-20.01320076	1.0
[LeftHandMiddle2]
9	36.98199844	0	0	-1.184417963	3.543318272	-29.75416183	1.0
10	36.98199844	0	0	-1.498646259	3.899709463	-34.45376968	1.0
11	36.98199844	0	0	-1.719137073	4.117949963	-37.52303314	1.0
[LeftHandMiddle3]
9	29.50900078	0	0	-0.07638176531	1.130289555	-8.619761467	1.0
10	29.50900078	0	0	-0.1736413687	1.585182428	-13.2952528	1.0
11	29.50900078	0	0	-0.257014364	1.877130747	-16.34752464	1.0
[LeftHandMiddle4]
9	28.3390007	0	0	0	0	0	1.0
10	28.3390007	0	0	0	0	0	1.0
11	28.3390007	0	0	0	0	0	1.0
[LeftHandRing1]
9	91.04499817	-0.4390000105	-18.65100098	-2.57571578	12.22493649	-23.22037125	1.0
10	91.04499817	-0.4390000105	-18.65100098	-3.160577297	11.53125668	-28.01417732	1.0
11	91.04499817	-0.4390000105	-18.65100098	-3.579486847	11.69320011	-31.12037277	1.0
[LeftHandRing2]
9	31.54000092	0	0	-0.9824528098	3.761919975	-36.52174377	1.0
10	31.54000092	0	0	-1.261601686	4.135880947	-41.24117279	1.0
11	31.54000092	0	0	-1.459878325	4.366767406	-44.31970215	1.0
[LeftHandRing3]
9	29.37700081	0	0	-0.01755338162	1.54833591	-15.69234657	1.0
10	29.37700081	0	0	-0.117426753	2.002776861	-20.36820221	1.0
11	29.37700081	0	0	-0.2024577409	2.294248104	-23.42000771	1.0
[LeftHandRing4]
9	26.47500038	0	0	0	0	0	1.0
10	26.47500038	0	0	0	0	0	1.0
11	26.47500038	0	0	0	0	0	1.0
[LeftHandPinky1]
9	80.77799988	-4.887000084	-38.06099701	-4.61105442	18.21961021	-33.18183517	1.0
10	80.77799988	-4.887000084	-38.06099701	-5.489006519	15.95196533	-37.98421478	1.0
11	80.77799988	-4.887000084	-38.06099701	-6.377177238	15.9789505	-41.15568924	1.0
[LeftHandPinky2]
9	36	0	0	-1.673802376	3.56389904	-41.93563461	1.0
10	36	0	0	-2.024356365	3.885088682	-46.70380402	1.0
11	36	0	0	-2.26328373	4.075634003	-49.76897049	1.0
[LeftHandPinky3]
9	21.14200211	0	0	-0.3969029486	2.498875618	-16.87751198	1.0
10	21.14200211	0	0	-0.5885971189	2.926681042	-21.55938148	1.0
11	21.14200211	0	0	-0.7323614359	3.196843624	-24.61677742	1.0
[LeftHandPinky4]
9	19.75699997	0	0	0	0	0	1.0
10	19.75699997	0	0	0	0	0	1.0
11	19.75699997	0	0	0	0	0	1.0
[RightShoulder]
9	-45.70000076	109.4620056	-26.28000069	4.198757648	0.6058650613	5.87614727	1.0
10	-45.70000076	109.4620056	-26.28000069	3.469619274	6.860651493	0.6736091971	1.0
11	-45.70000076	109.4620056	-26.28000069	1.885134459	12.3811245	-7.353805542	1.0
[RightArm]
9	-105.9280014	-5.248000145	-22.32099915	-0.9613034725	22.70684052	58.50115204	1.0
10	-105.9280014	-5.248000145	-22.32099915	-4.589819431	48.2157402	57.5025177	1.0
11	-105.9280014	-5.248000145	-22.32099915	-17.11362076	59.96421051	45.5389595	1.0
[RightForeArm]
9	-278.414978	0	0	9.0566773e-06	22.36531258	2.571517143e-06	1.0
10	-278.414978	0	0	-3.855435352e-06	14.60386086	6.247430974e-06	1.0
11	-278.414978	0	0	-3.922797532e-06	18.53160286	-8.773188711e-06	1.0
[RightHand]
9	-283.2879944	0	0.0009999999311	-6.289382935	4.573422432	-27.22294235	1.0
10	-283.2879944	0	0.0009999999311	-0.8337530494	20.41155243	-16.33439636	1.0
11	-283.2879944	0	0.0009999999311	3.722945929	25.15690804	-5.750092506	1.0
[RightHandPinky1]
9	-80.76699829	-4.885000229	-38.06000137	-4.363032818	-18.86904526	31.79309654	1.0
10	-80.76699829	-4.885000229	-38.06000137	-5.312917709	-16.22806931	37.14351273	1.0
11	-80.76699829	-4.885000229	-38.06000137	-6.897545815	-15.92175484	43.03767776	1.0
[RightHandPinky2]
9	-36	0	0.0009999999311	-1.577150702	-3.464841843	40.56951141	1.0
10	-36	0	0.0009999999311	-1.960132122	-3.82969451	45.87480545	1.0
11	-36	0	0.0009999999311	-2.409665346	-4.181928635	51.60574722	1.0
[RightHandPinky3]
9	-21.14200211	0	0	-0.5580770969	0.5091490149	17.14472198	1.0
10	-21.14200211	0	0	-0.7751752734	0.03576118127	22.33698463	1.0
11	-21.14200211	0	0	-1.060799241	-0.4574823678	28.02197647	1.0
[RightHandPinky4]
9	-19.75699997	0	0	0	0	0	1.0
10	-19.75699997	0	0	0	0	0	1.0
11	-19.75699997	0	0	0	0	0	1.0
[RightHandRing1]
9	-91.03599548	-0.4390000105	-18.65100098	-2.411992311	-12.42490482	21.84468651	1.0
10	-91.03599548	-0.4390000105	-18.65100098	-3.055238247	-11.60095882	27.17930031	1.0
11	-91.03599548	-0.4390000105	-18.65100098	-3.826967716	-11.65536213	32.97635269	1.0
[RightHandRing2]
9	-31.54000092	0	0	-0.9081970453	-3.650335789	35.17180252	1.0
10	-31.54000092	0	0	-1.210437655	-4.071699619	40.41651917	1.0
11	-31.54000092	0	0	-1.583662391	-4.498662472	46.15589905	1.0
[RightHandRing3]
9	-29.37700081	0	0	-0.05490566418	0.5788333416	12.83516216	1.0
10	-29.37700081	0	0	-0.1428208053	0.06934728473	18.02803421	1.0
11	-29.37700081	0	0	-0.2913885713	-0.4764288664	23.71084023	1.0
[RightHandRing4]
9	-26.47500038	0	0	0	0	0	1.0
10	-26.47500038	0	0	0	0	0	1.0
11	-26.47500038	0	0	0	0	0	1.0
[RightHandMiddle1]
9	-95.32500458	0	0	-0.9301754832	-7.154270172	10.92842865	1.0
10	-95.32500458	0	0	-1.546692133	-8.679055214	16.09623909	1.0
11	-95.32500458	0	0	-2.263752937	-9.244450569	21.85237885	1.0
[RightHandMiddle2]
9	-36.98199844	0	0	-1.099911213	-3.436318159	28.40997696	1.0
10	-36.98199844	0	0	-1.441470027	-3.838838816	33.6321106	1.0
11	-36.98199844	0	0	-1.855878711	-4.241771698	39.35296631	1.0
[RightHandMiddle3]
9	-29.50900078	0	0	-0.1291746199	-1.198383212	10.91547966	1.0
10	-29.50900078	0	0	-0.25969854	-1.698508739	16.1125412	1.0
11	-29.50900078	0	0	-0.4539064467	-2.229802132	21.80327034	1.0
[RightHandMiddle4]
9	-28.3390007	0	0.0009999999311	0	0	0	1.0
10	-28.3390007	0	0.0009999999311	0	0	0	1.0
11	-28.3390007	0	0.0009999999311	0	0	0	1.0
[RightHandIndex1]
9	-91.08300018	-5.167999744	22.60099792	0.1320232004	-1.241204143	3.163664103	1.0
10	-91.08300018	-5.167999744	22.60099792	-0.3134588599	-4.622764111	8.067380905	1.0
11	-91.08300018	-5.167999744	22.60099792	-0.8128846884	-5.386887074	13.75118446	1.0
[RightHandIndex2]
9	-36.76399994	0	0	-0.4058462679	-2.311893702	15.56120872	1.0
10	-36.76399994	0	0	-0.6387295723	-2.789579391	20.79036331	1.0
11	-36.76399994	0	0	-0.9409160614	-3.283331871	26.49063301	1.0
[RightHandIndex3]
9	-28.83100128	0	0	-0.1399191767	0.3334719241	8.864543915	1.0
10	-28.83100128	0	0	-0.2436767817	-0.1782628447	14.05771446	1.0
11	-28.83100128	0	0	-0.4098070264	-0.7250001431	19.74286842	1.0
[RightHandIndex4]
9	-23.92700005	0	0	0	0	0	1.0
10	-23.92700005	0	0	0	0	0	1.0
11	-23.92700005	0	0	0	0	0	1.0
[RightHandThumb1]
9	-24.64799881	-15.72700024	26.82600021	16.38664055	6.333483696	-9.906320572	1.0
10	-24.64799881	-15.72700024	26.82600021	18.07692528	3.959302425	-10.24771023	1.0
11	-24.64799881	-15.72700024	26.82600021	18.19216156	3.729112864	-10.25113392	1.0
[RightHandThumb2]
9	-32.29800034	-18.64699936	18.64699936	-2.519005537	-27.26385307	3.99711442	1.0
10	-32.29800034	-18.64699936	18.64699936	-0.5056831241	-32.66017532	2.884060621	1.0
11	-32.29800034	-18.64699936	18.64699936	-0.3255811632	-33.11139297	2.777362823	1.0
[RightHandThumb3]
9	-26.52600098	-15.31399918	15.31399918	1.309777141	-6.263041496	1.352811217	1.0
10	-26.52600098	-15.31399918	15.31399918	1.854336381	-8.417640686	0.8412629962	1.0
11	-26.52600098	-15.31399918	15.31399918	1.901046515	-8.598214149	0.7972447276	1.0
[RightHandThumb4]
9	-19.54599953	-11.28499985	11.28499985	0	0	0	1.0
10	-19.54599953	-11.28499985	11.28499985	0	0	0	1.0
11	-19.54599953	-11.28499985	11.28499985	0	0	0	1.0
[LeftUpLeg]
9	82.07800293	-67.51699829	-15.99599934	-91.10725403	-8.654407501	-1.813209176	1.0
10	82.07800293	-67.51699829	-15.99599934	-90.70259094	-8.635375023	-0.9921560884	1.0
11	82.07800293	-67.51699829	-15.99599934	-87.79229736	-8.307811737	-0.4445404708	1.0
[LeftLeg]
9	0	-443.7049866	2.845999956	87.62496948	-1.204721689	9.746014595	1.0
10	0	-443.7049866	2.845999956	88.89435577	-1.891180515	9.704475403	1.0
11	0	-443.7049866	2.845999956	87.60548401	-2.087750912	9.776873589	1.0
[LeftFoot]
9	0	-444.2789917	-29.8219986	-24.68239021	4.140479088	-8.117871284	1.0
10	0	-444.2789917	-29.8219986	-24.54828835	5.777754784	-7.502211571	1.0
11	0	-444.2789917	-29.8219986	-23.56546211	6.915384769	-6.971479893	1.0
[LeftToeBase]
9	0	-87.28699493	107.1060028	-3.783810616	3.952160625e-07	-2.973226856e-06	1.0
10	0	-87.28699493	107.1060028	-3.945163727	2.324516345e-06	-2.240921958e-06	1.0
11	0	-87.28699493	107.1060028	-4.109361649	-3.148227563e-07	5.253892141e-06	1.0
[RightUpLeg]
9	-82.07800293	-67.51699829	-15.99599934	-86.74710846	-4.80275631	-8.507620811	1.0
10	-82.07800293	-67.51699829	-15.99599934	-86.12931061	-1.369147778	-8.532829285	1.0
11	-82.07800293	-67.51699829	-15.99599934	-83.14416504	1.250693321	-7.952273846	1.0
[RightLeg]
9	0	-443.7049866	2.861999989	97.91407776	-1.186072946	-4.250965118	1.0
10	0	-443.7049866	2.861999989	98.56378937	-0.4533571303	-4.019630909	1.0
11	0	-443.7049866	2.861999989	96.61843872	-0.06186896563	-3.952286005	1.0
[RightFoot]
9	0	-444.2770081	-29.83799934	-31.96189117	-7.062999249	3.045576096	1.0
10	0	-444.2770081	-29.83799934	-31.62056541	-9.708322525	3.561074972	1.0
11	0	-444.2770081	-29.83799934	-30.50428009	-11.15828419	3.773043633	1.0
[RightToeBase]
9	0	-87.28699493	107.1060028	-9.480741501	1.035698915e-06	1.014793611e-06	1.0
10	0	-87.28699493	107.1060028	-9.374612808	2.068527237e-06	3.222316764e-06	1.0
11	0	-87.28699493	107.1060028	-9.43474865	1.606169917e-06	-1.5312296e-06	1.0
[EndOfFile]
